<?xml version="1.0" encoding="utf-8"?>
<!-- Generator: Adobe Illustrator 19.2.0, SVG Export Plug-In . SVG Version: 6.00 Build 0)  -->
<svg version="1.1" id="Layer_1" xmlns="http://www.w3.org/2000/svg" xmlns:xlink="http://www.w3.org/1999/xlink" x="0px" y="0px"
	 viewBox="0 0 1000 1000" style="enable-background:new 0 0 1000 1000;" xml:space="preserve">
<style type="text/css">
	.st0{fill:#FFFFFF;}
</style>
<g>
	<path class="st0" d="M500,26C238.2,26,26,238.2,26,500s212.2,474,474,474s474-212.2,474-474S761.8,26,500,26z M148.5,472.4
		c-5.8,10.1-11.8,20.1-17.7,30.1c-0.6,1.1-1.1,2.3-0.4,2.5c2.5,1.8,5.8,3,7.4,5.4c3.1,4.6-0.1,10.5-5.6,11.1
		c-4.8,0.5-9.7,0.9-14.4,0.4c-11-1-15.2-9.1-9.7-18.8c5.4-9.5,11.2-18.9,16.8-28.3c1-1.7,1.9-3.4,3-5.5c-7.4-0.7-12.6,1.9-16.3,7.5
		c-1.2,1.8-2,3.8-3,5.7c-2.4,4.6-6.2,6.3-10.2,4.5c-3.7-1.7-5.7-6.3-3.9-10.5c1.9-4.4,3.9-8.9,6.4-12.9c4.5-7.1,11.2-10.5,19.8-10.4
		c10,0.1,20,0.1,30,0c2.8,0,5.8-0.1,8.3-1.2c2.1-0.9,4.3-3,5.1-5.1c2.3-6.1,8.3-7.8,12.9-3.2c6,6,5.6,13.6-1,19
		c-5.9,4.8-13.1,5.6-20.3,5.5C152.2,468.3,150.2,469.4,148.5,472.4z M234.4,461.5c-2.8,14-6,27.8-9.2,42.1c5.6,1.3,8.4,3.3,8.3,8.1
		c-0.1,4.8-3.4,6.5-7.3,7.5c-3.2,0.9-6.4,1.9-9.7,2.4c-6.9,1-12-4.2-11-11.1c0.6-3.9,1.2-7.8,2-12.4c-8.6-0.1-17.1-2.7-23.3,6
		c-3.6,5-8.3,9.1-12.2,13.8c-1.7,2.1-2.8,4.8-3.7,7.4c-1.4,3.7-3.6,6.2-7.7,5.8c-4.3-0.4-6.6-2.7-7.3-7.4c-1.1-7.2,0.6-13,6.1-17.9
		c17.9-15.9,35.6-32.1,53.6-47.9c3.3-2.9,7.5-4.7,11.4-6.9c3.2-1.8,7.1-2,9,1.2C234.8,454.7,235,458.5,234.4,461.5z M310.3,469
		c-0.9,2.6-1.6,5.7-3.5,7.4c-4,3.6-9,1.8-12.4-3.5c-0.8-1.2-2.5-1.7-3.8-2.5c-0.5,1.6-1.8,3.6-1.3,4.7c1.4,3.2,3.3,6.1,5.3,8.9
		c7.2,9.9,6.7,19.6-2.1,28.2c-10.4,10.2-23,12.2-36.5,8.1c-7-2.1-8.7-5.8-6.9-12.9c0.4-1.8,0.8-3.6,1.3-5.3c1.1-4.2,3.6-7,8.2-6.5
		c4.4,0.5,6.7,3.4,6.7,7.9c0,0.8,0.1,1.6,0.2,3.2c2.4,0,4.7,0.3,6.9-0.1c7.6-1.2,9.3-5.6,4.7-11.8c-9.6-12.9-8.9-25.1,2.3-35
		c6.8-6,14.8-8.2,23.7-5.5C310.3,456.4,312.8,461.9,310.3,469z M375.5,472.3c-5.8,10.1-11.8,20.1-17.7,30.1c-0.6,1.1-1.1,2.3-1,2.2
		c3,2.1,6.3,3.4,7.9,5.8c3.1,4.6,0,10.5-5.6,11.1c-4.8,0.5-9.7,0.9-14.4,0.5c-11-1-15.2-9.1-9.7-18.8c5.4-9.5,11.2-18.9,16.8-28.3
		c1-1.7,1.9-3.4,3-5.5c-7.4-0.7-12.6,1.9-16.3,7.5c-1.3,1.9-2.1,4.1-3.2,6.2c-2.3,4.2-6.1,5.8-9.9,4.1c-3.7-1.6-5.7-6.2-4-10.4
		c1.6-4,3.4-8,5.6-11.7c4.7-7.9,11.7-11.9,21.1-11.7c9.8,0.2,19.6,0.1,29.5,0c2.8,0,5.8-0.1,8.3-1.2c2.1-0.9,4.3-3,5.1-5.1
		c2.3-6.1,8.3-7.8,12.9-3.2c6,6,5.7,13.6-1,19.1c-5.9,4.8-13.1,5.6-20.3,5.5C379.3,468.3,377.2,469.4,375.5,472.3z M462.6,461.6
		c-3.3,13.8-6.2,27.8-9.3,41.8c5.1,1.5,8.9,3.4,8.1,8.3c-0.4,2.2-1.8,5.2-3.6,5.9c-4.7,1.9-9.8,3.4-14.8,4
		c-5.7,0.7-10.2-4.8-9.5-10.8c0.5-4.1,1.3-8.1,2-12.8c-8.7-0.2-17.1-2.6-23.4,6c-3.6,5-8.3,9.1-12.2,13.8c-1.7,2.1-2.7,4.8-3.7,7.4
		c-1.4,3.7-3.7,6.1-7.7,5.8c-4-0.4-6.4-2.5-7.1-6.9c-1.2-7.4,0.4-13.4,6.1-18.4c17.8-15.8,35.3-31.8,53.2-47.6
		c3.3-2.9,7.5-4.7,11.4-7c3.2-1.9,6.5-2,9.2,0.6C464.1,454.6,463.5,457.9,462.6,461.6z M538.7,468.3c-3.4,0-5.5,1-7.2,4
		c-5.8,10.1-11.8,20.1-17.7,30.1c-0.6,1.1-1.1,2.3-1.6,3.5c0.4-0.3,0.8-0.7,1.2-1c2.6,1.9,5.9,3.3,7.5,5.8c2.7,4.3-0.3,10-5.3,10.6
		c-5.3,0.6-10.7,0.9-15.9,0.3c-10.2-1.2-14.1-9.1-9-18.1c5.2-9.3,10.8-18.3,16.3-27.5c1.2-2.1,2.4-4.3,3.8-6.8
		c-7.7-0.7-12.9,2-16.5,7.9c-1.3,2.1-2.2,4.5-3.5,6.6c-2.2,3.8-5.5,4.7-9.4,3.2c-3.5-1.3-5.8-5.9-4.2-9.4c2.2-5.2,4.5-10.4,7.6-15
		c4.2-6.4,10.6-9.3,18.4-9.3c10.2,0,20.3,0.1,30.5,0c3,0,6.1-0.2,8.8-1.3c1.9-0.8,3.9-2.9,4.6-4.9c2.2-6.1,8.3-7.8,12.9-3.3
		c6,6,5.7,13.6-0.9,19.1C553.1,467.6,545.9,468.4,538.7,468.3z M642.9,466.5c-11.4,10.9-17.6,25-24,38.9c0.4,0.3,0.7,0.7,1.1,1
		c1.3-0.5,2.7-1.1,4-1.6c4.4-1.6,8.5-0.1,10.2,3.6c1.8,4,0.3,8.5-4.1,10.3c-4.6,1.8-9.4,3.5-14.3,4.3c-6.9,1.1-13.4-0.3-16.7-5.9
		c-8.9,1.9-17.1,4.9-25.5,5.2c-15.6,0.6-23.6-12.5-16.6-26.6c4.4-8.7,9.9-16.9,15.1-25.6c-1.1-0.6-2.7-0.9-3.2-1.8
		c-1.3-2.6-3.5-5.8-2.9-8.2c0.6-2.3,4-5.2,6.5-5.5c7.6-0.9,15.2-0.9,22.9-0.9c4,0,6.7,2.2,7.5,6.1c0.8,3.7-1,6.3-4.2,8.3
		c-1.9,1.2-4,2.5-5.1,4.3c-5.4,8.2-10.6,16.6-15.6,25c-1.3,2.2-1.9,4.8-2.9,7.2c0.3,0.5,0.6,1,0.9,1.5c3.6-0.7,7.4-0.8,10.7-2.2
		c10.1-4.1,17.1-12,22.5-21.2c3.8-6.4,7.4-13,10.7-19.7c3.9-7.8,11.1-9.9,18.7-10.2c2.3-0.1,5.5,2.8,7,5.1
		C647.6,461,645.5,463.9,642.9,466.5z M808.3,465.6c-1.3,2.5-2.5,5-4.1,8.1c-4.1-1.5-8.1-3-12.1-4.3c-6.9-2.3-10.1-0.4-13.8,8.9
		c3.9-0.4,7.5-0.7,11-1.3c4.5-0.7,11,2.4,11.4,5.8c0.4,3.5-5.4,10.9-9.3,11.1c-4.6,0.3-9.3-0.1-14-0.1c-9.5,0-12.1,2.3-14.2,12.8
		c10,0.2,19.5-1.5,28.3-6.2c3.5-1.8,7.2-2.4,9.5,0.9c1.6,2.3,2.8,6.7,1.6,8.5c-2.8,4.5-6.5,8.8-12.7,9.4c-9.2,1-18.4,2.4-27.6,3.7
		c2.1,8.3,1.1,10.2-7.4,13.9c-17.9,7.6-38.8,3.2-51.4-11.7c-5.8-6.8-10.3-14.7-15.3-22.1c-1.4-2-2.6-4.2-4.4-7.1
		c-3.6,6.8-6.9,12.9-10,19c-1.9,3.9-4.3,6.7-9.1,6.3c-1-0.1-2.1,0.6-3.1,1.1c-3.7,2-7.2,1.5-10-1.3c-2.9-2.9-2.4-6.3-0.3-9.6
		c6.2-9.6,12.5-19.3,18.7-28.9c0.4-0.6,0.6-1.2,0.9-1.8c-6.8,0.8-9.7-0.4-11.1-4.7c-1.4-4.1,1.5-12.9,5.5-15
		c16.1-8.6,33.2-10.7,50.7-5.8c10.2,2.9,14.2,14.1,8,22.9c-3.4,4.8-8.9,8.1-13.6,11.9c-1.4,1.1-3.3,1.5-6,2.7
		c6.3,8,11.9,16.2,18.5,23.2c8.3,8.8,18.5,10.5,28,5.7c-1.2-0.5-2.2-1-3.1-1.4c-7.1-3.2-9.3-9.3-5.7-17c1.5-3.3,3.8-6.3,5.2-9.6
		c1.2-2.6,1.4-5.6,2.5-8.2c0.9-2.2,2-4.4,3.5-6.2c2.3-2.8,5-5.2,7.5-7.8c-0.3-0.4-0.6-0.7-0.8-1.1c-1.1-0.1-2.4,0.2-3.2-0.2
		c-2.8-1.5-7.2-1.2-6.4-6.5c1-7.2,3.7-10.5,8.8-10.5c13.8,0,27.6-0.1,41.4-0.1C809,453.1,812.1,458.2,808.3,465.6z M916.8,460
		c-4.8,0.7-7.7,3.3-9.7,7c-7.9,14.4-15.6,28.9-23.3,43.4c-1.2,2.3-2.2,4.9-3.3,7.3c-1.6,3.3-4.2,6-7.7,4.8c-2.9-1-6.2-3.6-7.3-6.3
		c-3.7-9.1-6.4-18.5-9.6-27.8c-0.3-0.9-0.8-1.8-1.7-3.8c-6.8,12.6-15.4,23.5-14,38.3c-5.1,0.2-9.9,1.9-13.5-3.1
		c-3.9-5.4-4.6-10.8-1.1-16.7c6.4-10.7,12.7-21.4,18.2-30.7c-2.6-4.3-5.6-7.4-6.3-10.9c-1-5,3.2-8.2,8.3-7.9
		c3.8,0.2,7.6,0.2,11.3-0.2c5.7-0.6,8.7,1.4,10.3,6.9c2.7,9.4,5.7,18.7,8.8,28.7c6.8-12,12.6-23.1,19.3-33.8
		c2.4-3.9,6.2-7.5,10.1-9.9c5.5-3.5,12.6-1.1,15.6,4.2C923.5,453.7,921.6,459.3,916.8,460z"/>
	<path class="st0" d="M704.5,469c-1.6,0.3-3.7,0.1-4.5,1c-2.2,2.6-3.8,5.6-5.6,8.5c0.4,0.5,0.8,1,1.2,1.5c3.2-2.2,6.6-4.2,9.5-6.7
		C705.7,472.8,704.7,470.5,704.5,469z"/>
</g>
</svg>
