<?xml version="1.0" encoding="utf-8"?>
<!-- Generator: Adobe Illustrator 19.2.0, SVG Export Plug-In . SVG Version: 6.00 Build 0)  -->
<svg version="1.1" id="Layer_1" xmlns="http://www.w3.org/2000/svg" xmlns:xlink="http://www.w3.org/1999/xlink" x="0px" y="0px"
	 viewBox="0 0 1000 1000" style="enable-background:new 0 0 1000 1000;" xml:space="preserve">
<style type="text/css">
	.st0{fill:#212121;}
	.st1{font-family:'MyriadPro-Regular';}
	.st2{font-size:103.6293px;}
	.st3{fill:#FFFFFF;}
</style>
<rect x="249.8" y="119.5" class="st0" width="527.5" height="111.4"/>
<text transform="matrix(1 0 0 1 212.7949 878.3304)" class="st0 st1 st2">TASTATUREN</text>
<g>
	<g>
		<path class="st3" d="M578.6,768.9h-90c-2.8,0-5-2.2-5-5V252.5c0-2.8,2.2-5,5-5h90c2.8,0,5,2.2,5,5v511.4
			C583.6,766.7,581.4,768.9,578.6,768.9z"/>
		<rect x="443.5" y="247.5" class="st3" width="80.8" height="521.4"/>
	</g>
	<path class="st0" d="M443.5,247.5c0.8,0,1.3,0,1.9,0c44.9,0,89.9,0,134.8,0c0.3,0,0.6,0,0.8,0c1.5,0,2.5,1.2,2.6,3.2
		c0,0.6,0,1.2,0,1.7c0,170.7,0,341.3,0,512c0,4.3-0.1,4.4-3.4,4.4c-44.9,0-89.8,0-134.7,0c-0.7,0-1.3,0-2.1,0
		C443.5,595,443.5,421.4,443.5,247.5z M445.4,695.9c0.8,0,1.5,0,2.1,0c9.2,0,18.3,0,27.5,0c19.5,0,38.9,0,58.4,0c2,0,3.1,1.4,3.1,4
		c0,1.7,0,3.5,0,5.5c0.9,0,1.5,0,2.2,0c12.1,0,24.2,0,36.3,0c1.6,0,3.2,0,4.7,0c1.3,0,2-0.9,2-2.5c0-7.7,0-15.3,0-23
		c0-0.6-0.4-1.3-0.6-1.9c-0.5-1.1-1.4-0.7-2.1-0.7c-21.9,0-43.8,0-65.6,0c-21.9,0-43.9,0-65.8,0c-0.7,0-1.3,0.1-2.1,0.1
		C445.4,683.6,445.4,689.5,445.4,695.9z M445.4,482.2c0.8,0,1.5,0,2.2,0c28.6,0,57.3,0,85.9,0c0.9,0,1.6,0.3,2.2,1.1
		c0.6,0.8,0.9,1.7,0.9,2.9c0,1.8-0.2,3.6,0.2,5.6c0.7,0,1.3,0,1.9,0c7.6,0,15.2,0,22.8,0c6,0,12,0,18.1,0c1.5,0,2.2-0.8,2.2-2.7
		c0-7.6,0-15.2,0-22.8c0-1.8-0.7-2.6-2.1-2.7c-0.2,0-0.4,0-0.7,0c-43.8,0-87.6,0-131.4,0c-0.3,0-0.7,0-1,0c-0.4,0.1-0.7,0.2-1.1,0.3
		C445.4,469.9,445.4,475.8,445.4,482.2z M445.4,268.4c0.7,0,1.3,0.1,1.8,0.1c6,0,12,0,18.1,0c22.8,0,45.6,0,68.3,0
		c1.7,0,2.9,1.6,2.9,3.7c0,1.5,0,2.9,0,4.4c0,1,0.3,1.5,1.1,1.5c0.3,0,0.7,0,1,0c8.2,0,16.4,0,24.6,0c5.4,0,10.8,0,16.2,0
		c1.5,0,2.2-0.9,2.2-2.9c0-0.9,0-1.9,0-2.8c0-6.4,0-12.8,0-19.3c0-1.2-0.2-2.2-1-2.8c-0.5-0.3-1.2-0.3-1.8-0.3
		c-43.4,0-86.8,0-130.3,0c-0.7,0-1.5,0-2.2,0c-0.4,0-0.7,0.2-1.1,0.3C445.4,256.3,445.4,262.1,445.4,268.4z M445.4,303.8
		c0.9,0,1.6,0,2.3,0c28.3,0,56.6,0,84.9,0c0.4,0,0.9-0.1,1.3,0c0.5,0.2,1,0.5,1.5,0.8c1.1,0.8,1.1,2.4,1.3,3.8
		c0.6,0,1.1,0.1,1.6,0.1c1.7,0,3.4,0,5.1,0c12,0,24,0,35.9,0c1.8,0,2.4-0.7,2.4-3c0-7.4,0-14.7,0-22.1c0-2.2-0.7-3-2.3-3
		c-13.7,0-27.4,0-41.2,0c-1.6,0-1.6,0-1.7,2.2c-0.1,2.1-1.3,3.5-2.9,3.5c-19.4,0-38.8,0-58.2,0c-9.3,0-18.7,0-28,0
		c-0.6,0-1.3,0.1-2,0.2C445.4,292.2,445.4,297.7,445.4,303.8z M445.4,552.8c0.8,0,1.5,0,2.1,0c28.3,0,56.6,0,84.9,0
		c15.6,0,31.2,0,46.7,0c2,0,2.5-0.7,2.6-3.2c0-7.3,0-14.6,0-21.9c0-2.4-0.6-3.1-2.4-3.1c-13.7,0-27.3,0-41,0c-0.5,0-1.1,0.1-1.8,0.2
		c0,2.1,0,4,0,5.9c0,3.2-1,4.5-3.4,4.5c-14.3,0-28.6,0-42.9,0c-14.3,0-28.6,0-42.9,0c-0.6,0-1.3,0.1-2,0.1
		C445.4,541.2,445.4,546.8,445.4,552.8z M445.4,517.5c0.9,0,1.5,0,2.2,0c28.6,0,57.3,0,85.9,0c1.7,0,2.8,1.2,3,3.4
		c0.1,1,0.4,1.4,1.2,1.4c0.2,0,0.4,0,0.7,0c13.6,0,27.2,0,40.8,0c2,0,2.6-0.7,2.6-3.4c0-7.1,0-14.3,0-21.4c0-2.7-0.5-3.4-2.6-3.4
		c-13.6,0-27.2,0-40.8,0c-0.5,0-1.1,0.1-1.7,0.2c0,0.8-0.1,1.5-0.1,2.1c0,0.9-0.2,1.5-0.7,2.1c-0.7,1-1.4,1.4-2.5,1.4
		c-28.7,0-57.4,0-86,0c-0.6,0-1.2,0.1-1.9,0.1C445.4,505.9,445.4,511.5,445.4,517.5z M536.6,735.9c0.7,0.1,1.1,0.1,1.5,0.1
		c13.7,0,27.4,0,41.2,0c1.8,0,2.4-0.7,2.4-3.2c0-7.3,0-14.6,0-21.9c0-2.3-0.6-3.1-2.4-3.1c-13.7,0-27.3,0-41,0
		c-0.5,0-1.1,0.1-1.7,0.1c0,0.9-0.1,1.5-0.1,2.1c0.1,0.9-0.3,1.4-0.7,2.1c-0.7,1.2-1.6,1.3-2.7,1.3c-28.5,0-57,0-85.5,0
		c-0.7,0-1.4,0.1-2.3,0.1c0,5.9-0.1,11.6,0.1,17.5c0.9,0,1.6,0,2.2,0c28.3,0,56.6,0,84.9,0c0.5,0,1-0.1,1.5,0
		c0.4,0.1,0.8,0.3,1.2,0.6C536.3,732.7,536.6,734.1,536.6,735.9z M445.4,766.5c0.8,0,1.5,0,2.2,0c43.4,0,86.7,0,130.1,0
		c0.6,0,1.2,0,1.9,0c1.6,0,2.2-0.8,2.2-2.9c0-7.4,0-14.9,0-22.3c0-2.1-0.6-2.9-2.3-2.9c-13.8,0-27.7,0-41.5,0
		c-0.4,0-0.8,0.2-1.4,0.3c0,2.3,0,4.5,0,6.7c0,2-1.3,3.6-2.9,3.6c-21.7,0-43.4,0-65.1,0c-7.1,0-14.2,0-21.3,0
		c-0.6,0-1.2,0.1-1.8,0.2C445.4,754.9,445.4,760.5,445.4,766.5z M445.4,339.1c0.8,0,1.5,0,2.1,0c37.9,0,75.7,0,113.6,0
		c6,0,12,0,18.1,0c2,0,2.5-0.7,2.6-3.2c0-7.3,0-14.6,0-21.9c0-2.3-0.6-3.1-2.4-3.1c-13.7,0-27.3,0-41,0c-0.5,0-1.1,0.1-1.8,0.2
		c0,2.4,0,4.6,0,6.7c0,0.9-0.3,1.6-0.7,2.3c-0.7,1.1-1.5,1.3-2.5,1.3c-15.2,0-30.4,0-45.6,0c-13.4,0-26.9,0-40.3,0
		c-0.6,0-1.3,0.1-2,0.1C445.4,327.4,445.4,333,445.4,339.1z M445.4,426.9c0.8,0,1.4,0,2,0c28.6,0,57.3,0,85.9-0.1
		c1.4,0,2.2,0.8,2.9,2c0.3,0.5,0.4,1.1,0.6,1.9c0.6,0,1.1,0,1.7,0c10.1,0,20.2,0,30.4,0c3.5,0,7.1,0,10.6,0c1.5,0,2.2-0.8,2.2-2.7
		c0-7.6,0-15.2,0-22.8c0-1-0.3-1.8-0.9-2.2c-0.5-0.4-1.1-0.5-1.7-0.5c-13.2,0-26.4,0-39.6,0c-3.3,0-3-0.5-3,3.8c0,2.3-1.2,3.9-3,3.9
		c-11,0-22,0-33.1,0c-17.7,0-35.3,0-53,0c-0.7,0-1.3,0.1-2,0.1C445.4,415.8,445.4,421.1,445.4,426.9z M445.4,675c0.8,0,1.5,0,2.1,0
		c33.8,0,67.6,0,101.4,0c10.1,0,20.1,0,30.2,0c2,0,2.5-0.7,2.6-3.2c0-7.3,0-14.6,0-21.9c0-2.4-0.5-3.1-2.4-3.1c-13.7,0-27.3,0-41,0
		c-0.5,0-1.1,0.1-1.8,0.2c0,0.9,0,1.6,0,2.3c0,1.8,0,3.5,0,5.3c0,0.9-0.1,1.6-0.7,2.3c-0.7,0.9-1.4,1.4-2.5,1.4
		c-11.6-0.1-23.2,0-34.8,0c-17,0-34,0-51,0c-0.7,0-1.4,0.1-2.2,0.1C445.4,663.9,445.4,669.2,445.4,675z M536.8,644.4
		c4.1,0,8,0,11.9,0c10.2,0,20.4,0,30.5,0c1.7,0,2.4-0.7,2.4-2.6c0-7.7,0-15.3,0-23c0-1.2-0.5-1.9-1.2-2.4c-0.4-0.3-1-0.2-1.5-0.2
		c-13.2,0-26.4,0-39.6,0c-3.2,0-2.9-0.4-2.9,3.7c0,0.9,0,1.8-0.7,2.6c-0.7,0.9-1.4,1.4-2.5,1.4c-28.7,0-57.4,0-86,0
		c-0.6,0-1.2,0.1-1.9,0.1c0,5.6,0,10.9,0,16.6c0.8,0,1.5,0,2.2,0c28.5,0,57,0,85.5-0.1c1.5,0,2.3,0.9,3.1,2.1
		C536.5,643,536.6,643.7,536.8,644.4z M536.5,400.1c0.8,0.1,1.2,0.1,1.6,0.1c13.7,0,27.4,0,41.2,0c1.8,0,2.4-0.8,2.4-3.2
		c0-7.3,0-14.6,0-21.9c0-2.5-0.5-3.1-2.4-3.1c-13.7,0-27.4,0-41.2,0c-0.5,0-1,0.1-1.4,0.1c-0.6,2.6-1.9,3.7-3.7,3.7
		c-21.9-0.1-43.8-0.1-65.6-0.1c-6.7,0-13.4,0-20.1,0c-0.6,0-1.3,0.1-1.9,0.2c-0.4,3.7-0.2,14.9,0.2,16.5c0.6,0,1.2,0,1.8,0
		c4.4,0,8.8,0,13.2,0c24.4,0,48.7,0,73.1,0c1.5,0,2.8,1.6,2.8,3.6C536.5,397.4,536.5,398.6,536.5,400.1z M536.9,585.8
		c-0.1,0.2-0.3,0.3-0.3,0.4c-0.7,2.4-1.6,3.3-3.5,3.3c-25.5,0-51.1,0-76.6,0c-3.1,0-6.3,0-9.4,0c-0.5,0-1.1,0.1-1.6,0.2
		c0,5.5,0,10.8,0,16.4c0.7,0.1,1.3,0.1,1.9,0.1c28.7,0,57.5,0,86.2,0c1.8,0,3,1.5,3,3.8c0,1.2,0.1,2.4,0.1,3.8c0.7,0,1.2,0,1.7,0
		c13.6,0,27.2,0,40.8,0c2.1,0,2.6-0.7,2.6-3.4c0-7.1,0-14.3,0-21.4c0-2.7-0.5-3.3-2.6-3.3c-13.6,0-27.2,0-40.8,0
		C537.8,585.7,537.3,585.8,536.9,585.8z M536.6,583.2c0.7,0,1.3,0.1,1.9,0.1c3.3,0,6.6,0,10,0c10.2,0,20.5,0,30.7,0
		c1.9,0,2.5-0.6,2.5-2.7c0-7.6,0-15.2,0-22.7c0-1.7-0.8-2.6-2.1-2.7c-0.3,0-0.6,0-0.8,0c-43.4,0-86.8,0-130.2,0c-0.7,0-1.4,0-2,0
		c-0.4,0-0.7,0.2-1.1,0.3c-0.3,2.8-0.2,14.7,0.2,16.5c0.5,0,1.1,0,1.8,0c28.7,0,57.3,0,86,0c1.9,0,3.1,1.4,3.1,4c0,1.7,0,3.5,0,5.2
		C536.5,581.7,536.6,582.4,536.6,583.2z M536.5,369.6c0.9,0,1.5,0,2.1,0c7.5,0,15,0,22.4,0c6.1,0,12.3,0,18.4,0
		c1.6,0,2.2-0.8,2.2-2.7c0-7.6,0-15.2,0-22.8c0-1.8-0.7-2.6-2-2.7c-0.2,0-0.4,0-0.7,0c-43.8,0-87.6,0-131.5,0c-0.3,0-0.7,0-1,0
		c-0.4,0.1-0.7,0.2-1.1,0.3c-0.3,3.4-0.2,14.7,0.2,16.4c0.7,0,1.4,0,2.1,0c28.5,0,57,0,85.6,0c2.1,0,3.2,1.4,3.2,4.1
		C536.5,364.6,536.5,366.9,536.5,369.6z M445.4,461.2c0.8,0,1.4,0,2,0c22.7,0,45.4,0,68.1,0c21.2,0,42.4,0,63.6,0
		c2.1,0,2.6-0.7,2.6-3.3c0-7.2,0-14.4,0-21.7c0-2.5-0.6-3.2-2.5-3.2c-13.6,0-27.2,0-40.8,0c-0.5,0-1.1,0.1-1.7,0.1
		c0,0.8-0.1,1.4-0.1,2.1c0,1.7,0,3.5,0,5.2c0,2.6-1.1,4-3.1,4c-6.6,0-13.2,0-19.7,0c-22.1,0-44.2,0-66.3,0c-0.6,0-1.3,0.1-2,0.2
		C445.4,450.2,445.4,455.5,445.4,461.2z"/>
</g>
</svg>
