<svg id="Layer_1" xmlns="http://www.w3.org/2000/svg" viewBox="0 0 1000 1000"><style>.st0{fill:#212121}.st1{font-family:&apos;MyriadPro-Regular&apos;}.st2{font-size:103.6293px}.st3{fill:#fff}</style><path class="st0" d="M249.8 119.5h527.5v111.4H249.8z"/><text transform="translate(212.795 878.33)" class="st0 st1 st2">TASTATUREN</text><path class="st3" d="M578.6 768.9h-90c-2.8 0-5-2.2-5-5V252.5c0-2.8 2.2-5 5-5h90c2.8 0 5 2.2 5 5v511.4c0 2.8-2.2 5-5 5z"/><path class="st3" d="M443.5 247.5h80.8v521.4h-80.8z"/><path class="st0" d="M443.5 247.5H581c1.5 0 2.5 1.2 2.6 3.2v513.7c0 4.3-.1 4.4-3.4 4.4H443.4c.1-173.8.1-347.4.1-521.3zm1.9 448.4h88c2 0 3.1 1.4 3.1 4v5.5h43.2c1.3 0 2-.9 2-2.5v-23c0-.6-.4-1.3-.6-1.9-.5-1.1-1.4-.7-2.1-.7H447.6c-.7 0-1.3.1-2.1.1-.1 6.2-.1 12.1-.1 18.5zm0-213.7h88.1c.9 0 1.6.3 2.2 1.1.6.8.9 1.7.9 2.9 0 1.8-.2 3.6.2 5.6h42.8c1.5 0 2.2-.8 2.2-2.7v-22.8c0-1.8-.7-2.6-2.1-2.7H446.6c-.4.1-.7.2-1.1.3-.1 6-.1 11.9-.1 18.3zm0-213.8c.7 0 1.3.1 1.8.1h86.4c1.7 0 2.9 1.6 2.9 3.7v4.4c0 1 .3 1.5 1.1 1.5h41.8c1.5 0 2.2-.9 2.2-2.9v-22.1c0-1.2-.2-2.2-1-2.8-.5-.3-1.2-.3-1.8-.3H446.3c-.4 0-.7.2-1.1.3.2 6 .2 11.8.2 18.1zm0 35.4h87.2c.4 0 .9-.1 1.3 0 .5.2 1 .5 1.5.8 1.1.8 1.1 2.4 1.3 3.8.6 0 1.1.1 1.6.1h41c1.8 0 2.4-.7 2.4-3v-22.1c0-2.2-.7-3-2.3-3h-41.2c-1.6 0-1.6 0-1.7 2.2-.1 2.1-1.3 3.5-2.9 3.5h-86.2c-.6 0-1.3.1-2 .2v17.5zm0 249h133.7c2 0 2.5-.7 2.6-3.2v-21.9c0-2.4-.6-3.1-2.4-3.1h-41c-.5 0-1.1.1-1.8.2v5.9c0 3.2-1 4.5-3.4 4.5h-85.8c-.6 0-1.3.1-2 .1.1 5.9.1 11.5.1 17.5zm0-35.3h88.1c1.7 0 2.8 1.2 3 3.4.1 1 .4 1.4 1.2 1.4h41.5c2 0 2.6-.7 2.6-3.4v-21.4c0-2.7-.5-3.4-2.6-3.4h-40.8c-.5 0-1.1.1-1.7.2 0 .8-.1 1.5-.1 2.1 0 .9-.2 1.5-.7 2.1-.7 1-1.4 1.4-2.5 1.4h-86c-.6 0-1.2.1-1.9.1-.1 5.9-.1 11.5-.1 17.5zm91.2 218.4c.7.1 1.1.1 1.5.1h41.2c1.8 0 2.4-.7 2.4-3.2v-21.9c0-2.3-.6-3.1-2.4-3.1h-41c-.5 0-1.1.1-1.7.1 0 .9-.1 1.5-.1 2.1.1.9-.3 1.4-.7 2.1-.7 1.2-1.6 1.3-2.7 1.3h-85.5c-.7 0-1.4.1-2.3.1 0 5.9-.1 11.6.1 17.5h87.1c.5 0 1-.1 1.5 0 .4.1.8.3 1.2.6 1.1 1.1 1.4 2.5 1.4 4.3zm-91.2 30.6h134.2c1.6 0 2.2-.8 2.2-2.9v-22.3c0-2.1-.6-2.9-2.3-2.9H538c-.4 0-.8.2-1.4.3v6.7c0 2-1.3 3.6-2.9 3.6h-86.4c-.6 0-1.2.1-1.8.2-.1 5.7-.1 11.3-.1 17.3zm0-427.4h133.8c2 0 2.5-.7 2.6-3.2V314c0-2.3-.6-3.1-2.4-3.1h-41c-.5 0-1.1.1-1.8.2v6.7c0 .9-.3 1.6-.7 2.3-.7 1.1-1.5 1.3-2.5 1.3h-85.9c-.6 0-1.3.1-2 .1-.1 5.9-.1 11.5-.1 17.6zm0 87.8h2c28.6 0 57.3 0 85.9-.1 1.4 0 2.2.8 2.9 2 .3.5.4 1.1.6 1.9h42.7c1.5 0 2.2-.8 2.2-2.7v-22.8c0-1-.3-1.8-.9-2.2-.5-.4-1.1-.5-1.7-.5h-39.6c-3.3 0-3-.5-3 3.8 0 2.3-1.2 3.9-3 3.9h-86.1c-.7 0-1.3.1-2 .1v16.6zm0 248.1h133.7c2 0 2.5-.7 2.6-3.2v-21.9c0-2.4-.5-3.1-2.4-3.1h-41c-.5 0-1.1.1-1.8.2v7.6c0 .9-.1 1.6-.7 2.3-.7.9-1.4 1.4-2.5 1.4-11.6-.1-23.2 0-34.8 0h-51c-.7 0-1.4.1-2.2.1.1 5.5.1 10.8.1 16.6zm91.4-30.6h42.4c1.7 0 2.4-.7 2.4-2.6v-23c0-1.2-.5-1.9-1.2-2.4-.4-.3-1-.2-1.5-.2h-39.6c-3.2 0-2.9-.4-2.9 3.7 0 .9 0 1.8-.7 2.6-.7.9-1.4 1.4-2.5 1.4h-86c-.6 0-1.2.1-1.9.1v16.6h2.2c28.5 0 57 0 85.5-.1 1.5 0 2.3.9 3.1 2.1.4.4.5 1.1.7 1.8zm-.3-244.3c.8.1 1.2.1 1.6.1h41.2c1.8 0 2.4-.8 2.4-3.2v-21.9c0-2.5-.5-3.1-2.4-3.1h-41.2c-.5 0-1 .1-1.4.1-.6 2.6-1.9 3.7-3.7 3.7-21.9-.1-43.8-.1-65.6-.1h-20.1c-.6 0-1.3.1-1.9.2-.4 3.7-.2 14.9.2 16.5h88.1c1.5 0 2.8 1.6 2.8 3.6v4.1zm.4 185.7c-.1.2-.3.3-.3.4-.7 2.4-1.6 3.3-3.5 3.3h-86c-.5 0-1.1.1-1.6.2v16.4c.7.1 1.3.1 1.9.1h86.2c1.8 0 3 1.5 3 3.8 0 1.2.1 2.4.1 3.8h42.5c2.1 0 2.6-.7 2.6-3.4V589c0-2.7-.5-3.3-2.6-3.3h-40.8c-.6 0-1.1.1-1.5.1zm-.3-2.6c.7 0 1.3.1 1.9.1h40.7c1.9 0 2.5-.6 2.5-2.7v-22.7c0-1.7-.8-2.6-2.1-2.7h-133c-.4 0-.7.2-1.1.3-.3 2.8-.2 14.7.2 16.5h87.8c1.9 0 3.1 1.4 3.1 4v5.2c-.1.5 0 1.2 0 2zm-.1-213.6h42.9c1.6 0 2.2-.8 2.2-2.7v-22.8c0-1.8-.7-2.6-2-2.7H446.4c-.4.1-.7.2-1.1.3-.3 3.4-.2 14.7.2 16.4h87.7c2.1 0 3.2 1.4 3.2 4.1.1 2.4.1 4.7.1 7.4zm-91.1 91.6h133.7c2.1 0 2.6-.7 2.6-3.3v-21.7c0-2.5-.6-3.2-2.5-3.2h-40.8c-.5 0-1.1.1-1.7.1 0 .8-.1 1.4-.1 2.1v5.2c0 2.6-1.1 4-3.1 4h-86c-.6 0-1.3.1-2 .2-.1 5.6-.1 10.9-.1 16.6z"/></svg>