<svg xmlns="http://www.w3.org/2000/svg" viewBox="0 0 768.8 269.9"><path d="M160.7 108.7c16.7 6.6 18.1 8.7 18.1 27.2 0 5.5.1 11 0 16.5-.2 12.1-5 17.9-16.8 20.5-.8.2-1.6.5-2.3.8h-50c-.6-.3-1.2-.7-1.8-.8-11.8-2.7-16.7-8.5-17-20.5-.2-7.5-.2-15 0-22.5.2-11.8 5.4-17.9 17-20.5.6-.1 1.2-.5 1.8-.8 17 .1 34 .1 51 .1zM135 157.1v.2h7c2.5 0 5 .1 7.5-.1 6-.5 8.5-2.6 9-8.5.4-4.8.4-9.7 0-14.4-.4-4.8-3-8.4-8.1-8.6-10.3-.3-20.6-.3-30.9 0-4.8.1-7.6 3.4-7.9 8.1-.3 5.1-.2 10.3 0 15.4.2 5 3 7.7 7.9 7.9 5.2.2 10.3 0 15.5 0zm601.7-48.4c.6.3 1.2.6 1.8.8 11.6 2.8 14.8 7.3 13.8 19.9h-19.4c.5-5.8-3.8-6.3-8.1-6.4-7.8-.2-15.6-.3-23.5 0-2.1.1-4.8 1-6.2 2.5-2.4 2.6-.4 6.8 3.6 7.2 5.5.6 11 .6 16.4.9 9 .4 18 .3 26.9 1.3 8.6 1 12 5.2 12.9 13.9.2 1.6.2 3.3.2 5 .1 13.4-2.6 16.7-15.5 19.3-.6.1-1.2.5-1.9.7h-49c-.8-.3-1.5-.7-2.3-.9-10.2-2.7-14.3-10-11.2-20.6h16.5c3.1 3 5.1 6.5 7.3 6.7 10.4.6 20.9.5 31.4 0 1.5-.1 3.9-3 4.1-4.9.2-1.4-2.2-4.1-3.8-4.5-4-.9-8.2-.8-12.4-1-10.6-.6-21.3-.5-31.8-1.8-9-1.1-11.6-5.1-11.8-14.3-.3-17 .6-18.4 16.1-23.7 15.2-.1 30.6-.1 45.9-.1zm-169 0c.3 1.3.8 2.6.8 3.8V170c0 .8-.2 1.6-.4 3.1-9.7 0-19.3.1-28.9-.1-1.3 0-2.7-1.7-3.7-2.9-10.6-13.1-21-26.2-31.5-39.4-.7-.9-1-2-1.5-3.1-.5.4-1.1.7-1.6 1.1v44h-19.1c-.2-1.1-.5-2.4-.5-3.6v-57c0-1.1.3-2.3.4-3.4h1c8.3.2 16.6.2 24.9.7 2.3.1 5.1 1.4 6.6 3.1 10.3 12.4 20.2 25.1 30.3 37.7 1 1.3 2.2 2.5 4.3 4.8v-46.4c6.2.1 12.6.1 18.9.1zm-100 0v64.4c-9.9 0-19.3.1-28.7-.1-1.4 0-3-1.8-4.1-3.2-10.4-12.8-20.6-25.7-30.9-38.6-.8-1-1.6-1.9-3.2-3.7v45.2h-20v-64h30c12.2 15.2 24.4 30.3 36.6 45.5 1.1-13.9 1.2-27.2 1-40.4 0-3.5 1.1-4.6 4.6-4.5 4.6.1 9.2-.3 13.9-.5.1-.1.5-.1.8-.1zm-199 0c.9 1.1 2.7 2.3 2.7 3.4.1 19.8 0 39.6 0 59.4 0 .3-.3.6-.6 1.2h-19V149h-41.3v23.7h-19.8v-64.1h1c6.1.3 12.2.6 18.9 1v21.8h41.1v-22.8c5.7.1 11.3.1 17 .1zm331 65c-.7-.3-1.4-.8-2.2-1-10.6-2.9-15.7-8.9-15.8-20.1-.2-14.6 0-29.3 0-43.9h1c4.8.2 9.6.6 14.4.5 3.6-.1 4.5 1.2 4.5 4.7-.2 11.2-.1 22.3 0 33.5.1 6.7 2.6 9.5 9.2 9.8 6.5.3 13 .2 19.5.1 9.7 0 12.3-2.7 12.3-12.6 0-12 .1-24 .1-36h1c6.1.3 12.1.6 17.8.9 0 16.5.6 32.7-.3 48.8-.4 7.3-6.3 11.7-13.3 13.9-1.4.4-2.8.9-4.2 1.3-14.7.1-29.3.1-44 .1zm-261-65c10.7 19.5 21.4 39.1 32.1 58.6.9 1.6 1.7 3.2 2.9 5.7-7.4 0-14.1.2-20.8-.2-1.1-.1-2.6-2.1-3-3.5-2.1-6.5-6.5-8.1-13-7.6-8.6.6-17.3.4-26 .1-3.8-.1-6.1 1.1-7.1 4.6-1.7 5.7-5.4 7.6-11.2 6.9-4.4-.5-8.9-.1-14.4-.1 3-5.6 5.6-10.4 8.2-15.1 8.1-14.8 16.2-29.5 24.1-44.3 1.7-3.2 3.5-4.6 7.3-4.5 6.6.2 13.3-.3 19.9-.5.3-.1.7-.1 1-.1zm-12.9 15.8c-4.2 8.1-8 15.4-11.9 23.1h24.2c-4.2-7.8-8-15-12.3-23.1zM29.7 173.7c-.9-.4-1.8-.8-2.7-1.1-8.4-2.2-12.4-6.7-13.1-15.4-.3-3.6-.1-7.3-.1-11.3h18.4c.2.4.5.6.5.9.6 10.2 1.3 10.9 11.6 10.9 15.3 0 15.3 0 15.3-15.1 0-11.3.1-22.6.1-34h19c.1 16.3.5 32.5 0 48.8-.2 8.5-4.6 12.8-12.8 15-1.4.4-2.8.8-4.3 1.2-10.6.1-21.2.1-31.9.1z"/></svg>