<svg id="Layer_1" xmlns="http://www.w3.org/2000/svg" viewBox="0 0 388.6 49"><style>.st0{fill:#fff}</style><path class="st0" d="M378.7 18.5h-10.2c0-.3-.1-.6-.1-.9-.1-1.5-.8-2.3-2.4-2.3h-13.2c-2 0-2.5.7-2.5 2.2 0 1 .5 1.7 1.5 1.9.9.2 1.7.3 2.6.3 5.6.1 11.2.2 16.8.4.8 0 1.5.2 2.3.3 3.4.7 5.7 2.7 6.2 6.3.3 2.5.4 5 .1 7.5-.5 3.9-3.5 6.3-7.9 6.5-4.7.2-9.4.3-14.1.3-3.8 0-7.7-.3-11.5-.5-.7 0-1.5-.3-2.2-.5-2.5-.7-4.1-2.4-4.5-5-.3-1.9-.3-3.8-.4-5.8h10.6l.1.1c.2 2.8 0 3.3 3.9 3.4 4.2.1 8.4 0 12.6 0 2.2 0 2.8-.7 2.8-2.4 0-1-.5-1.6-1.4-1.8-1.3-.2-2.5-.4-3.8-.5-5.6-.2-11.1-.3-16.7-.5-.7 0-1.4-.2-2.1-.3-3.1-.6-5.1-2.5-5.4-5.6-.3-2.5-.4-5 0-7.5.5-3.9 3.1-6.2 7.6-6.4 7.8-.3 15.6-.3 23.4-.1 5.8.1 9 3.6 7.9 10.9zM68.2 7.1c4.3.2 8.7.2 13 .7 5.5.6 8.2 3.1 8.7 8.6.4 5.1.4 10.3 0 15.4-.5 5.6-3.7 8.6-9.4 8.7-8.2.2-16.5.1-24.7 0-1.5 0-3.2-.5-4.6-1.2-3.2-1.4-4.8-4.1-4.9-7.4-.2-5.4-.3-10.8.2-16.2.4-4.8 3.4-7.4 8.2-8.1.6-.1 1.2-.2 1.8-.2h11.7v-.3zm-.1 25.1V32h5.6c.5 0 1-.1 1.5-.2 2.7-.4 3.9-1.7 4-4.4.1-2 .1-4.1 0-6.1-.1-3.1-1.3-4.6-4.4-4.8-4.1-.2-8.1-.2-12.2-.2-.8 0-1.6.2-2.4.4-1.8.3-2.9 1.4-3.1 3.2-.1 2.4-.1 4.9-.1 7.3 0 2.8 1.3 4.2 4.1 4.5 2.3.3 4.7.3 7 .5zm207.6-1.5V7.8h10.5v32.8h-13.8c-.8 0-1.3-.3-1.8-.9-5.5-7-11.1-14-16.7-21.1-.3-.3-.6-.7-1-1.2v23h-10.7V7.7h14c.9 0 1.4.3 1.9.9 5.5 7.1 11 14.1 16.5 21.2.3.3.5.7.8 1 .1 0 .2 0 .3-.1zm-50.8.4V7.8h10.6v32.7c-.4 0-.8.1-1.3.1h-12.5c-.8 0-1.4-.3-1.9-.9-5.6-7.1-11.2-14.1-16.7-21.2-.2-.3-.5-.6-.9-1.1v23.1h-10.7V7.8c.4 0 .8-.1 1.2-.1h12.8c.8 0 1.3.3 1.8.9 5.5 7.1 11 14.1 16.5 21.2.4.3.6.7 1.1 1.3zm-118-11.7h19V7.8h10.7v32.7h-10.7V28.2h-19.1v12.3H96.1V7.9h10.6c.2 3.8.2 7.6.2 11.5zM322.7 7.8h10.7c0 .4.1.7.1 1V30c0 1.3-.2 2.7-.5 4-.7 2.8-2.4 4.8-5.2 5.6-1.9.6-4 1.1-6 1.1-6.2.1-12.3 0-18.5-.2-1.5 0-3.1-.5-4.6-.9-3.5-.9-5.3-3.5-5.9-7-.1-.9-.2-1.8-.2-2.7V8.7c0-.3 0-.6.1-1h10.7v20.5c.2 2.3 1 3.4 3.3 3.5 4.1.2 8.1.3 12.2.1 2.6-.1 3.7-1.4 3.7-4.1.1-4.8 0-9.5.1-14.3V7.8zM188 40.5h-10.8c-.3 0-.8-.4-1-.7-.8-1.2-1.5-2.6-2.3-3.8-.3-.4-.8-.8-1.3-.8-5.7-.1-11.4-.1-17.2 0-.4 0-1 .4-1.3.8-.8 1.2-1.5 2.6-2.3 3.8-.2.3-.6.7-1 .7h-10.4c-.1 0-.1-.1-.2-.2.2-.3.3-.7.5-1 5.5-10.2 10.9-20.3 16.4-30.5.4-.8.8-1.1 1.7-1.1 3.6.1 7.3 0 10.9.1.5 0 1.1.3 1.3.7 5.6 10.5 11.1 21 16.6 31.5.2 0 .2.2.4.5zm-23.9-24.3c-1.9 3.5-3.7 6.9-5.6 10.4h11.2c-1.8-3.5-3.6-6.8-5.6-10.4zM29.6 7.8h10.7v22.5c0 1 0 2.1-.2 3.1-.9 4.3-3.4 6.7-8.1 7.2-5.8.6-11.6.7-17.3-.2-4.7-.7-6.9-3-7.3-7.8-.2-2.2 0-4.4 0-6.7h10.2c.1 1.1.1 2.2.2 3.2.2 2 .9 2.8 2.9 2.9 2.1.1 4.2.1 6.2 0 1.8-.1 2.4-.7 2.7-2.4.1-.7.1-1.4.1-2.2V9.2c-.1-.5-.1-.9-.1-1.4z"/></svg>