<svg id="Laag_1" data-name="Laag 1" xmlns="http://www.w3.org/2000/svg" viewBox="0 0 238.79 45"><defs><style>.cls-1,.cls-2{fill:#fff}.cls-1{opacity:0}</style></defs><title>rodger_white</title><path class="cls-1" d="M0 0h238.79v45H0z"/><path class="cls-2" d="M215.58 19.1c-3.94-1.72-7-3.09-6.5-6.26.63-3.68 4.57-4.09 6.86-4a8.2 8.2 0 0 1 7.17 4.77l.1.21h2.05l-1.5-6a26.48 26.48 0 0 0-9-1.3c-6.52 0-10.42 3-10.42 8.26 0 4.83 4.78 7 9.4 9.16 3.59 1.65 7 3.21 7.92 5.85a5.06 5.06 0 0 1-1.11 5.47c-1.34 1.15-3.62 1.55-7 1.21a10.27 10.27 0 0 1-8.5-6.42l-.15-.37-2 1 1.44 6.48.15.08a15.64 15.64 0 0 0 2.85 1 30.43 30.43 0 0 0 8 1c4.86 0 9.05-2.33 10.68-5.93a7.84 7.84 0 0 0-1.6-8.65c-2.33-2.66-5.79-4.22-8.84-5.56zm-20.98 8.41a16.42 16.42 0 0 0-2.05-4.07 9.76 9.76 0 0 0 4.75-2.32 7.22 7.22 0 0 0 2.06-5.41 7.68 7.68 0 0 0-2.52-6c-2.2-2-5.78-2.89-10.94-3.12-.88 0-1.77-.06-2.68 0a110.1 110.1 0 0 0-11.44.68h-.33v1.84l2 .21h.11a1.81 1.81 0 0 1 .72.28A1.68 1.68 0 0 1 175 11v23.93a1.63 1.63 0 0 1-1.55 1.68l-2.73.19v1.92h13.91V36.8l-2.72-.19a1.67 1.67 0 0 1-1.55-1.68V23.87c.71 0 1.48 0 2.29.05L185 24c1.81.46 2.63 2.13 3.73 4.36 1.87 3.82 4.43 9.05 14.1 11l.44.09v-2.36l-.2-.09c-5.58-2.2-7.07-6.07-8.47-9.49zm-14.22-5.64V9c.67 0 1.32 0 1.93-.05 4.87 0 8 .7 9.63 2.29a5.52 5.52 0 0 1 1.56 4.29c.01 5.17-3.07 6.3-13.12 6.34zM124.19 28l4.21.27a1.66 1.66 0 0 1 1.53 1.71v6.92l-2.17.09c-6.94.34-11.83-.82-14.92-3.55 2.45-2.61 3.69-6.11 3.69-10.42s-1.22-7.9-3.63-10.53c3-2.68 7.67-3.9 13.59-3.52 5 .31 6 3.57 6.55 5.31l.14.43.09.25h1.87l-.7-7-.25-.07C127 6 116.57 5.51 110 10.07 103.16 5.8 92.07 6.2 81.9 7.22h-.33v1.9l2 .21a1.68 1.68 0 0 1 1.54 1.73v23.81a1.67 1.67 0 0 1-1.55 1.73l-2.73.19v1.93h.34c3.75.35 7.62.62 11.37.62 6.61 0 12.83-.85 17.29-3.57 4 2.76 9.57 3.59 15.24 3.59a88.31 88.31 0 0 0 9.86-.64h.33v-8.77a1.67 1.67 0 0 1 1.54-1.71l2-.2V26.1h-14.61V28zM107 33.15c-4.47 3.53-11.29 4.07-16.5 3.85V9c5.22-.22 12.06.33 16.53 3.86A15.82 15.82 0 0 0 103.89 23 16 16 0 0 0 107 33.15zm3.07-3.66a16.78 16.78 0 0 1-1.18-6.49 16.67 16.67 0 0 1 1.16-6.47 13.79 13.79 0 0 1 1.46 6.5 13.8 13.8 0 0 1-1.45 6.46zM167 32.72a5.91 5.91 0 0 1-5 3.37c-4.56.15-10.49.29-13.33.19V23.33h8.64a2 2 0 0 1 1.88 1.51l.79 3.46h1.93V16.22h-1.92l-.73 2.89a2 2 0 0 1-1.83 1.38h-8.75V9.67c2.93-.11 8.45.05 11.55.16a5.67 5.67 0 0 1 4.89 3.49l.1.22h1.77l-.76-6.34h-26.54v1.94l2 .21a1.69 1.69 0 0 1 1.55 1.73v23.76a1.67 1.67 0 0 1-1.55 1.73l-2.73.19v2h29.08l2.07-8.44h-2zM38.92 30.33c-1.4-2.67-2.74-5.21-4.86-6.94a9.58 9.58 0 0 0 4.52-2.27 7.22 7.22 0 0 0 2.06-5.41 7.68 7.68 0 0 0-2.52-6c-2.2-2-5.78-2.89-10.94-3.12-.88 0-1.77-.06-2.68 0a110 110 0 0 0-11.5.62h-.33v1.9l2 .21h.11a1.81 1.81 0 0 1 .72.28 1.68 1.68 0 0 1 .79 1.4v23.93a1.63 1.63 0 0 1-1.55 1.68L12 36.8v1.92h13.93V36.8l-2.72-.19a1.67 1.67 0 0 1-1.55-1.68V23.87c.71 0 1.48 0 2.29.05l2.26.08c2.34.61 4.06 3.18 6.18 6.37C35.93 35.68 40.79 43 52 44.94l.32.06.34-1.44-.31-.11c-8.1-2.97-10.93-8.36-13.43-13.12zm-17.26-8.46V9h2.15c4.75 0 7.77.72 9.42 2.29a5.52 5.52 0 0 1 1.56 4.29c0 5.2-3.08 6.25-13.13 6.29z"/><path class="cls-2" d="M75.45 10.36A20.24 20.24 0 0 0 62.18 5.8a20.26 20.26 0 0 0-13.26 4.55A16.09 16.09 0 0 0 43.33 23a16.09 16.09 0 0 0 5.59 12.62 20.28 20.28 0 0 0 13.26 4.53 20.26 20.26 0 0 0 13.26-4.55A16.09 16.09 0 0 0 81 23a16.09 16.09 0 0 0-5.55-12.64zm-3.3 23.34a10.17 10.17 0 0 1-7.53 3.93A13.73 13.73 0 0 1 54 34.34a15.66 15.66 0 0 1-4.65-9.11c-.77-4.71.3-9.63 2.78-12.85a10.41 10.41 0 0 1 7.57-4.1q.64-.06 1.3-.06c6 .01 12.55 3.78 14 12.47.75 4.82-.33 9.8-2.85 13.01zm163.14-21.63a2.56 2.56 0 0 0-.32-.63 1.52 1.52 0 0 0 .74-.36 1.13 1.13 0 0 0 .32-.84 1.2 1.2 0 0 0-.39-.94 2.74 2.74 0 0 0-1.71-.49h-.42a17.14 17.14 0 0 0-1.78.11h-.05v.28h.43a.26.26 0 0 1 .1.21v3.73a.25.25 0 0 1-.24.26h-.43v.3h2.17v-.3h-.42a.26.26 0 0 1-.24-.26V11.5h.73a1 1 0 0 1 .58.68 2.41 2.41 0 0 0 1.85 1.72v-.37a2.17 2.17 0 0 1-.92-1.46zm-2.22-.88v-2h.3a2.17 2.17 0 0 1 1.5.36.86.86 0 0 1 .24.67c.01.78-.47.96-2.04.97z"/><path class="cls-2" d="M234 6.52a4.84 4.84 0 1 0 4.84 4.84A4.84 4.84 0 0 0 234 6.52zm0 9a4.13 4.13 0 1 1 4.13-4.13 4.14 4.14 0 0 1-4.13 4.1z"/></svg>