<?xml version="1.0" encoding="utf-8"?>
<!-- Generator: Adobe Illustrator 19.2.0, SVG Export Plug-In . SVG Version: 6.00 Build 0)  -->
<svg version="1.1" id="Layer_1" xmlns="http://www.w3.org/2000/svg" xmlns:xlink="http://www.w3.org/1999/xlink" x="0px" y="0px"
	 viewBox="0 0 768.8 269.9" style="enable-background:new 0 0 768.8 269.9;" xml:space="preserve">
<path d="M160.7,108.7c16.7,6.6,18.1,8.7,18.1,27.2c0,5.5,0.1,11,0,16.5c-0.2,12.1-5,17.9-16.8,20.5c-0.8,0.2-1.6,0.5-2.3,0.8
	c-16.7,0-33.3,0-50,0c-0.6-0.3-1.2-0.7-1.8-0.8c-11.8-2.7-16.7-8.5-17-20.5c-0.2-7.5-0.2-15,0-22.5c0.2-11.8,5.4-17.9,17-20.5
	c0.6-0.1,1.2-0.5,1.8-0.8C126.7,108.7,143.7,108.7,160.7,108.7z M135,157.1c0,0.1,0,0.1,0,0.2c2.3,0,4.7,0,7,0c2.5,0,5,0.1,7.5-0.1
	c6-0.5,8.5-2.6,9-8.5c0.4-4.8,0.4-9.7,0-14.4c-0.4-4.8-3-8.4-8.1-8.6c-10.3-0.3-20.6-0.3-30.9,0c-4.8,0.1-7.6,3.4-7.9,8.1
	c-0.3,5.1-0.2,10.3,0,15.4c0.2,5,3,7.7,7.9,7.9C124.7,157.3,129.8,157.1,135,157.1z"/>
<path d="M736.7,108.7c0.6,0.3,1.2,0.6,1.8,0.8c11.6,2.8,14.8,7.3,13.8,19.9c-6.2,0-12.5,0-19.4,0c0.5-5.8-3.8-6.3-8.1-6.4
	c-7.8-0.2-15.6-0.3-23.5,0c-2.1,0.1-4.8,1-6.2,2.5c-2.4,2.6-0.4,6.8,3.6,7.2c5.5,0.6,11,0.6,16.4,0.9c9,0.4,18,0.3,26.9,1.3
	c8.6,1,12,5.2,12.9,13.9c0.2,1.6,0.2,3.3,0.2,5c0.1,13.4-2.6,16.7-15.5,19.3c-0.6,0.1-1.2,0.5-1.9,0.7c-16.3,0-32.7,0-49,0
	c-0.8-0.3-1.5-0.7-2.3-0.9c-10.2-2.7-14.3-10-11.2-20.6c6,0,12.1,0,16.5,0c3.1,3,5.1,6.5,7.3,6.7c10.4,0.6,20.9,0.5,31.4,0
	c1.5-0.1,3.9-3,4.1-4.9c0.2-1.4-2.2-4.1-3.8-4.5c-4-0.9-8.2-0.8-12.4-1c-10.6-0.6-21.3-0.5-31.8-1.8c-9-1.1-11.6-5.1-11.8-14.3
	c-0.3-17,0.6-18.4,16.1-23.7C706,108.7,721.4,108.7,736.7,108.7z"/>
<path d="M567.7,108.7c0.3,1.3,0.8,2.6,0.8,3.8c0,19.2,0,38.3,0,57.5c0,0.8-0.2,1.6-0.4,3.1c-9.7,0-19.3,0.1-28.9-0.1
	c-1.3,0-2.7-1.7-3.7-2.9c-10.6-13.1-21-26.2-31.5-39.4c-0.7-0.9-1-2-1.5-3.1c-0.5,0.4-1.1,0.7-1.6,1.1c0,14.5,0,29.1,0,44
	c-6.5,0-12.6,0-19.1,0c-0.2-1.1-0.5-2.4-0.5-3.6c0-19,0-38,0-57c0-1.1,0.3-2.3,0.4-3.4c0.3,0,0.7,0,1,0c8.3,0.2,16.6,0.2,24.9,0.7
	c2.3,0.1,5.1,1.4,6.6,3.1c10.3,12.4,20.2,25.1,30.3,37.7c1,1.3,2.2,2.5,4.3,4.8c0-16.5,0-31.5,0-46.4
	C555,108.7,561.4,108.7,567.7,108.7z"/>
<path d="M467.7,108.7c0,21.3,0,42.5,0,64.4c-9.9,0-19.3,0.1-28.7-0.1c-1.4,0-3-1.8-4.1-3.2c-10.4-12.8-20.6-25.7-30.9-38.6
	c-0.8-1-1.6-1.9-3.2-3.7c0,15.7,0,30.2,0,45.2c-6.8,0-13.1,0-20,0c0-21.5,0-42.8,0-64c0.3,0,0.7,0,1,0c9.3,0,18.7,0,28,0
	c0.3,0,0.7,0,1,0c12.2,15.2,24.4,30.3,36.6,45.5c1.1-13.9,1.2-27.2,1-40.4c0-3.5,1.1-4.6,4.6-4.5c4.6,0.1,9.2-0.3,13.9-0.5
	C467,108.7,467.4,108.7,467.7,108.7z"/>
<path d="M268.7,108.7c0.9,1.1,2.7,2.3,2.7,3.4c0.1,19.8,0,39.6,0,59.4c0,0.3-0.3,0.6-0.6,1.2c-6,0-12.3,0-19,0c0-7.9,0-15.6,0-23.7
	c-13.9,0-27.3,0-41.3,0c0,8,0,15.7,0,23.7c-6.7,0-12.8,0-19.8,0c0-21.4,0-42.7,0-64.1c0.3,0,0.7,0,1,0c6.1,0.3,12.2,0.6,18.9,1
	c0,7.5,0,14.7,0,21.8c14.1,0,27.5,0,41.1,0c0-7.9,0-15.3,0-22.8C257.4,108.7,263,108.7,268.7,108.7z"/>
<path d="M599.7,173.7c-0.7-0.3-1.4-0.8-2.2-1c-10.6-2.9-15.7-8.9-15.8-20.1c-0.2-14.6,0-29.3,0-43.9c0.3,0,0.7,0,1,0
	c4.8,0.2,9.6,0.6,14.4,0.5c3.6-0.1,4.5,1.2,4.5,4.7c-0.2,11.2-0.1,22.3,0,33.5c0.1,6.7,2.6,9.5,9.2,9.8c6.5,0.3,13,0.2,19.5,0.1
	c9.7,0,12.3-2.7,12.3-12.6c0-12,0.1-24,0.1-36c0.3,0,0.7,0,1,0c6.1,0.3,12.1,0.6,17.8,0.9c0,16.5,0.6,32.7-0.3,48.8
	c-0.4,7.3-6.3,11.7-13.3,13.9c-1.4,0.4-2.8,0.9-4.2,1.3C629,173.7,614.4,173.7,599.7,173.7z"/>
<path d="M338.7,108.7c10.7,19.5,21.4,39.1,32.1,58.6c0.9,1.6,1.7,3.2,2.9,5.7c-7.4,0-14.1,0.2-20.8-0.2c-1.1-0.1-2.6-2.1-3-3.5
	c-2.1-6.5-6.5-8.1-13-7.6c-8.6,0.6-17.3,0.4-26,0.1c-3.8-0.1-6.1,1.1-7.1,4.6c-1.7,5.7-5.4,7.6-11.2,6.9c-4.4-0.5-8.9-0.1-14.4-0.1
	c3-5.6,5.6-10.4,8.2-15.1c8.1-14.8,16.2-29.5,24.1-44.3c1.7-3.2,3.5-4.6,7.3-4.5c6.6,0.2,13.3-0.3,19.9-0.5
	C338,108.7,338.4,108.7,338.7,108.7z M325.8,124.5c-4.2,8.1-8,15.4-11.9,23.1c8.5,0,16,0,24.2,0
	C333.9,139.8,330.1,132.6,325.8,124.5z"/>
<path d="M29.7,173.7c-0.9-0.4-1.8-0.8-2.7-1.1c-8.4-2.2-12.4-6.7-13.1-15.4c-0.3-3.6-0.1-7.3-0.1-11.3c6.3,0,12.3,0,18.4,0
	c0.2,0.4,0.5,0.6,0.5,0.9c0.6,10.2,1.3,10.9,11.6,10.9c15.3,0,15.3,0,15.3-15.1c0-11.3,0.1-22.6,0.1-34c6.3,0,12.7,0,19,0
	c0.1,16.3,0.5,32.5,0,48.8c-0.2,8.5-4.6,12.8-12.8,15c-1.4,0.4-2.8,0.8-4.3,1.2C51,173.7,40.4,173.7,29.7,173.7z"/>
</svg>
