<?xml version="1.0" encoding="utf-8"?>
<!-- Generator: Adobe Illustrator 19.2.0, SVG Export Plug-In . SVG Version: 6.00 Build 0)  -->
<svg version="1.1" id="Layer_1" xmlns="http://www.w3.org/2000/svg" xmlns:xlink="http://www.w3.org/1999/xlink" x="0px" y="0px"
	 viewBox="0 0 388.6 49" style="enable-background:new 0 0 388.6 49;" xml:space="preserve">
<style type="text/css">
	.st0{fill:#FFFFFF;}
</style>
<path class="st0" d="M378.7,18.5c-3.4,0-6.8,0-10.2,0c0-0.3-0.1-0.6-0.1-0.9c-0.1-1.5-0.8-2.3-2.4-2.3c-4.4,0-8.8,0-13.2,0
	c-2,0-2.5,0.7-2.5,2.2c0,1,0.5,1.7,1.5,1.9c0.9,0.2,1.7,0.3,2.6,0.3c5.6,0.1,11.2,0.2,16.8,0.4c0.8,0,1.5,0.2,2.3,0.3
	c3.4,0.7,5.7,2.7,6.2,6.3c0.3,2.5,0.4,5,0.1,7.5c-0.5,3.9-3.5,6.3-7.9,6.5c-4.7,0.2-9.4,0.3-14.1,0.3c-3.8,0-7.7-0.3-11.5-0.5
	c-0.7,0-1.5-0.3-2.2-0.5c-2.5-0.7-4.1-2.4-4.5-5c-0.3-1.9-0.3-3.8-0.4-5.8c3.7,0,7.2,0,10.6,0c0.1,0.1,0.1,0.1,0.1,0.1
	c0.2,2.8,0,3.3,3.9,3.4c4.2,0.1,8.4,0,12.6,0c2.2,0,2.8-0.7,2.8-2.4c0-1-0.5-1.6-1.4-1.8c-1.3-0.2-2.5-0.4-3.8-0.5
	c-5.6-0.2-11.1-0.3-16.7-0.5c-0.7,0-1.4-0.2-2.1-0.3c-3.1-0.6-5.1-2.5-5.4-5.6c-0.3-2.5-0.4-5,0-7.5c0.5-3.9,3.1-6.2,7.6-6.4
	c7.8-0.3,15.6-0.3,23.4-0.1C376.6,7.7,379.8,11.2,378.7,18.5z"/>
<path class="st0" d="M68.2,7.1c4.3,0.2,8.7,0.2,13,0.7c5.5,0.6,8.2,3.1,8.7,8.6c0.4,5.1,0.4,10.3,0,15.4c-0.5,5.6-3.7,8.6-9.4,8.7
	c-8.2,0.2-16.5,0.1-24.7,0c-1.5,0-3.2-0.5-4.6-1.2c-3.2-1.4-4.8-4.1-4.9-7.4c-0.2-5.4-0.3-10.8,0.2-16.2c0.4-4.8,3.4-7.4,8.2-8.1
	c0.6-0.1,1.2-0.2,1.8-0.2c3.9,0,7.8,0,11.7,0C68.2,7.4,68.2,7.3,68.2,7.1z M68.1,32.2c0-0.1,0-0.1,0-0.2c1.9,0,3.8,0,5.6,0
	c0.5,0,1-0.1,1.5-0.2c2.7-0.4,3.9-1.7,4-4.4c0.1-2,0.1-4.1,0-6.1c-0.1-3.1-1.3-4.6-4.4-4.8c-4.1-0.2-8.1-0.2-12.2-0.2
	c-0.8,0-1.6,0.2-2.4,0.4c-1.8,0.3-2.9,1.4-3.1,3.2C57,22.3,57,24.8,57,27.2c0,2.8,1.3,4.2,4.1,4.5C63.4,32,65.8,32,68.1,32.2z"/>
<path class="st0" d="M275.7,30.7c0-7.6,0-15.3,0-22.9c3.5,0,7,0,10.5,0c0,10.9,0,21.8,0,32.8c-0.8,0-1.5,0-2.2,0
	c-3.9,0-7.8,0-11.6,0c-0.8,0-1.3-0.3-1.8-0.9c-5.5-7-11.1-14-16.7-21.1c-0.3-0.3-0.6-0.7-1-1.2c0,7.8,0,15.4,0,23
	c-3.6,0-7.1,0-10.7,0c0-10.9,0-21.7,0-32.7c0.5,0,1,0,1.5,0c4.2,0,8.3,0,12.5,0c0.9,0,1.4,0.3,1.9,0.9c5.5,7.1,11,14.1,16.5,21.2
	c0.3,0.3,0.5,0.7,0.8,1C275.5,30.8,275.6,30.8,275.7,30.7z"/>
<path class="st0" d="M224.9,31.1c0-8,0-15.6,0-23.3c3.6,0,7,0,10.6,0c0,10.8,0,21.7,0,32.7c-0.4,0-0.8,0.1-1.3,0.1
	c-4.2,0-8.3,0-12.5,0c-0.8,0-1.4-0.3-1.9-0.9c-5.6-7.1-11.2-14.1-16.7-21.2c-0.2-0.3-0.5-0.6-0.9-1.1c0,7.8,0,15.4,0,23.1
	c-3.6,0-7.1,0-10.7,0c0-10.9,0-21.7,0-32.7c0.4,0,0.8-0.1,1.2-0.1c4.3,0,8.6,0,12.8,0c0.8,0,1.3,0.3,1.8,0.9
	c5.5,7.1,11,14.1,16.5,21.2C224.2,30.1,224.4,30.5,224.9,31.1z"/>
<path class="st0" d="M106.9,19.4c6.4,0,12.7,0,19,0c0-3.9,0-7.7,0-11.6c3.6,0,7.1,0,10.7,0c0,10.9,0,21.7,0,32.7c-3.5,0-7,0-10.7,0
	c0-4.1,0-8.2,0-12.3c-6.4,0-12.7,0-19.1,0c0,4.1,0,8.2,0,12.3c-3.6,0-7.1,0-10.7,0c0-10.9,0-21.7,0-32.6c3.5,0,7,0,10.6,0
	C106.9,11.7,106.9,15.5,106.9,19.4z"/>
<path class="st0" d="M322.7,7.8c3.6,0,7.1,0,10.7,0c0,0.4,0.1,0.7,0.1,1c0,7.1,0,14.2,0,21.2c0,1.3-0.2,2.7-0.5,4
	c-0.7,2.8-2.4,4.8-5.2,5.6c-1.9,0.6-4,1.1-6,1.1c-6.2,0.1-12.3,0-18.5-0.2c-1.5,0-3.1-0.5-4.6-0.9c-3.5-0.9-5.3-3.5-5.9-7
	c-0.1-0.9-0.2-1.8-0.2-2.7c0-7.1,0-14.2,0-21.2c0-0.3,0-0.6,0.1-1c3.6,0,7.1,0,10.7,0c0,0.5,0,0.9,0,1.4c0,5.8,0,11.5,0,17.3
	c0,0.6,0,1.2,0,1.8c0.2,2.3,1,3.4,3.3,3.5c4.1,0.2,8.1,0.3,12.2,0.1c2.6-0.1,3.7-1.4,3.7-4.1c0.1-4.8,0-9.5,0.1-14.3
	C322.7,11.7,322.7,9.8,322.7,7.8z"/>
<path class="st0" d="M188,40.5c-3.7,0-7.3,0-10.8,0c-0.3,0-0.8-0.4-1-0.7c-0.8-1.2-1.5-2.6-2.3-3.8c-0.3-0.4-0.8-0.8-1.3-0.8
	c-5.7-0.1-11.4-0.1-17.2,0c-0.4,0-1,0.4-1.3,0.8c-0.8,1.2-1.5,2.6-2.3,3.8c-0.2,0.3-0.6,0.7-1,0.7c-3.5,0-7,0-10.4,0
	c-0.1,0-0.1-0.1-0.2-0.2c0.2-0.3,0.3-0.7,0.5-1c5.5-10.2,10.9-20.3,16.4-30.5c0.4-0.8,0.8-1.1,1.7-1.1c3.6,0.1,7.3,0,10.9,0.1
	c0.5,0,1.1,0.3,1.3,0.7c5.6,10.5,11.1,21,16.6,31.5C187.8,40,187.8,40.2,188,40.5z M164.1,16.2c-1.9,3.5-3.7,6.9-5.6,10.4
	c3.8,0,7.4,0,11.2,0C167.9,23.1,166.1,19.8,164.1,16.2z"/>
<path class="st0" d="M29.6,7.8c3.6,0,7.1,0,10.7,0c0,0.5,0,0.9,0,1.4c0,7,0,14.1,0,21.1c0,1,0,2.1-0.2,3.1c-0.9,4.3-3.4,6.7-8.1,7.2
	c-5.8,0.6-11.6,0.7-17.3-0.2c-4.7-0.7-6.9-3-7.3-7.8c-0.2-2.2,0-4.4,0-6.7c3.3,0,6.7,0,10.2,0c0.1,1.1,0.1,2.2,0.2,3.2
	c0.2,2,0.9,2.8,2.9,2.9c2.1,0.1,4.2,0.1,6.2,0c1.8-0.1,2.4-0.7,2.7-2.4c0.1-0.7,0.1-1.4,0.1-2.2c0-6.1,0-12.2,0-18.2
	C29.6,8.7,29.6,8.3,29.6,7.8z"/>
</svg>
