<svg id="Laag_1" data-name="Laag 1" xmlns="http://www.w3.org/2000/svg" viewBox="0 0 238.79 45"><defs><style>.cls-1{fill:#fff;opacity:0;}.cls-2{fill:#1d1d1b;}</style></defs><title>rodger_black</title><rect class="cls-1" width="238.79" height="45"/><path class="cls-2" d="M215.58,19.1c-3.94-1.72-7-3.09-6.5-6.26,0.63-3.68,4.57-4.09,6.86-4a8.2,8.2,0,0,1,7.17,4.77l0.1,0.21h2.05l-1.5-6a26.48,26.48,0,0,0-9-1.3c-6.52,0-10.42,3-10.42,8.26,0,4.83,4.78,7,9.4,9.16,3.59,1.65,7,3.21,7.92,5.85a5.06,5.06,0,0,1-1.11,5.47c-1.34,1.15-3.62,1.55-7,1.21a10.27,10.27,0,0,1-8.5-6.42l-0.15-.37-2,1,1.44,6.48,0.15,0.08a15.64,15.64,0,0,0,2.85,1,30.43,30.43,0,0,0,8,1c4.86,0,9.05-2.33,10.68-5.93a7.84,7.84,0,0,0-1.6-8.65C222.09,22,218.63,20.44,215.58,19.1Z"/><path class="cls-2" d="M194.6,27.51a16.42,16.42,0,0,0-2.05-4.07,9.76,9.76,0,0,0,4.75-2.32,7.22,7.22,0,0,0,2.06-5.41,7.68,7.68,0,0,0-2.52-6c-2.2-2-5.78-2.89-10.94-3.12-0.88,0-1.77-.06-2.68,0a110.1,110.1,0,0,0-11.44.68l-0.33,0V9.11l2,0.21h0.11a1.81,1.81,0,0,1,.72.28l0,0,0,0A1.68,1.68,0,0,1,175,11V34.93a1.63,1.63,0,0,1-1.55,1.68l-2.73.19v1.92h13.91V36.8l-2.72-.19a1.67,1.67,0,0,1-1.55-1.68V23.87c0.71,0,1.48,0,2.29.05L185,24c1.81,0.46,2.63,2.13,3.73,4.36,1.87,3.82,4.43,9.05,14.1,11l0.44,0.09V37.09L203.07,37C197.49,34.8,196,30.93,194.6,27.51Zm-14.22-5.64V9c0.67,0,1.32,0,1.93-.05,4.87,0,8,.7,9.63,2.29a5.52,5.52,0,0,1,1.56,4.29C193.51,20.7,190.43,21.83,180.38,21.87Z"/><path class="cls-2" d="M124.19,28l4.21,0.27a1.66,1.66,0,0,1,1.53,1.71v6.92l-2.17.09c-6.94.34-11.83-.82-14.92-3.55,2.45-2.61,3.69-6.11,3.69-10.42s-1.22-7.9-3.63-10.53c3-2.68,7.67-3.9,13.59-3.52,5,0.31,6,3.57,6.55,5.31l0.14,0.43,0.09,0.25h1.87l-0.7-7-0.25-.07C127,6,116.57,5.51,110,10.07,103.16,5.8,92.07,6.2,81.9,7.22l-0.33,0v1.9l2,0.21a1.68,1.68,0,0,1,1.54,1.73V34.87a1.67,1.67,0,0,1-1.55,1.73l-2.73.19v1.93l0.34,0c3.75,0.35,7.62.62,11.37,0.62,6.61,0,12.83-.85,17.29-3.57,4,2.76,9.57,3.59,15.24,3.59a88.31,88.31,0,0,0,9.86-.64l0.33,0V29.95a1.67,1.67,0,0,1,1.54-1.71l2-.2V26.1H124.19V28ZM107,33.15c-4.47,3.53-11.29,4.07-16.5,3.85V9c5.22-.22,12.06.33,16.53,3.86A15.82,15.82,0,0,0,103.89,23,16,16,0,0,0,107,33.15Zm3.07-3.66A16.78,16.78,0,0,1,108.89,23a16.67,16.67,0,0,1,1.16-6.47,13.79,13.79,0,0,1,1.46,6.5A13.8,13.8,0,0,1,110.06,29.49Z"/><path class="cls-2" d="M167,32.72a5.91,5.91,0,0,1-5,3.37c-4.56.15-10.49,0.29-13.33,0.19V23.33h8.64a2,2,0,0,1,1.88,1.51l0.79,3.46h1.93V16.22h-1.92l-0.73,2.89a2,2,0,0,1-1.83,1.38h-8.75V9.67c2.93-.11,8.45.05,11.55,0.16a5.67,5.67,0,0,1,4.89,3.49l0.1,0.22h1.77L166.23,7.2H139.69V9.14l2,0.21a1.69,1.69,0,0,1,1.55,1.73V34.84a1.67,1.67,0,0,1-1.55,1.73l-2.73.19v2h29.08l2.07-8.44h-2Z"/><path class="cls-2" d="M38.92,30.33c-1.4-2.67-2.74-5.21-4.86-6.94a9.58,9.58,0,0,0,4.52-2.27,7.22,7.22,0,0,0,2.06-5.41,7.68,7.68,0,0,0-2.52-6c-2.2-2-5.78-2.89-10.94-3.12-0.88,0-1.77-.06-2.68,0A110,110,0,0,0,13,7.21l-0.33,0V9.11l2,0.21h0.11a1.81,1.81,0,0,1,.72.28l0,0,0,0A1.68,1.68,0,0,1,16.29,11V34.93a1.63,1.63,0,0,1-1.55,1.68L12,36.8v1.92H25.93V36.8l-2.72-.19a1.67,1.67,0,0,1-1.55-1.68V23.87c0.71,0,1.48,0,2.29.05L26.21,24c2.34,0.61,4.06,3.18,6.18,6.37C35.93,35.68,40.79,43,52,44.94L52.32,45l0.34-1.44-0.31-.11C44.25,40.48,41.42,35.09,38.92,30.33ZM21.66,21.87V9Q22.79,9,23.81,9c4.75,0,7.77.72,9.42,2.29a5.52,5.52,0,0,1,1.56,4.29C34.79,20.78,31.71,21.83,21.66,21.87Z"/><path class="cls-2" d="M75.45,10.36A20.24,20.24,0,0,0,62.18,5.8a20.26,20.26,0,0,0-13.26,4.55A16.09,16.09,0,0,0,43.33,23a16.09,16.09,0,0,0,5.59,12.62,20.28,20.28,0,0,0,13.26,4.53,20.26,20.26,0,0,0,13.26-4.55A16.09,16.09,0,0,0,81,23,16.09,16.09,0,0,0,75.45,10.36ZM72.15,33.7a10.17,10.17,0,0,1-7.53,3.93A13.73,13.73,0,0,1,54,34.34a15.66,15.66,0,0,1-4.65-9.11c-0.77-4.71.3-9.63,2.78-12.85a10.41,10.41,0,0,1,7.57-4.1q0.64-.06,1.3-0.06C67,8.23,73.55,12,75,20.69,75.75,25.51,74.67,30.49,72.15,33.7Z"/><path class="cls-2" d="M235.29,12.07a2.56,2.56,0,0,0-.32-0.63,1.52,1.52,0,0,0,.74-0.36,1.13,1.13,0,0,0,.32-0.84,1.2,1.2,0,0,0-.39-0.94,2.74,2.74,0,0,0-1.71-.49h-0.42a17.14,17.14,0,0,0-1.78.11h-0.05V9.2l0.32,0h0l0.11,0h0a0.26,0.26,0,0,1,.1.21v3.73a0.25,0.25,0,0,1-.24.26l-0.43,0v0.3h2.17v-0.3l-0.42,0a0.26,0.26,0,0,1-.24-0.26V11.5h0.73a1,1,0,0,1,.58.68,2.41,2.41,0,0,0,1.85,1.72l0-.37A2.17,2.17,0,0,1,235.29,12.07Zm-2.22-.88v-2h0.3a2.17,2.17,0,0,1,1.5.36,0.86,0.86,0,0,1,.24.67C235.12,11,234.64,11.18,233.07,11.19Z"/><path class="cls-2" d="M234,6.52a4.84,4.84,0,1,0,4.84,4.84A4.84,4.84,0,0,0,234,6.52Zm0,9a4.13,4.13,0,1,1,4.13-4.13A4.14,4.14,0,0,1,234,15.49Z"/></svg>